<?xml version="1.0" encoding="UTF-8" standalone="no"?>
<svg width="200.96" height="46" viewBox="0 0 200.96 46" fill="none" xmlns="http://www.w3.org/2000/svg">
  <g transform="translate(0, 3)">
    
    <g transform="translate(0, 0) scale(0.4)">
      <path d="M20 25L50 75L80 25" stroke="#71717a" stroke-width="8" stroke-linecap="round" stroke-linejoin="round" />
      <circle cx="50" cy="75" r="10" fill="#06b6d4" />
    </g>
    <path d="M63.0752 20L58.0049 20L52.5049 3.9941L56.7695 3.9941L58.9932 10.9873Q59.5195 12.7275 60.0083 14.6396Q60.4971 16.5518 60.9912 18.6680L60.1641 18.6680Q60.6475 16.5410 61.1094 14.6343Q61.5713 12.7275 62.0762 10.9873L64.2139 3.9941L68.4248 3.9941 M80.1725 20L69.0758 20L69.0758 3.9941L80.1832 3.9941L80.1832 7.0879L72.8678 7.0879L72.8678 10.3965L79.6031 10.3965L79.6031 13.4258L72.8678 13.4258L72.8678 16.9063L80.1725 16.9063 M85.1848 20L81.3928 20L81.3928 3.9941L87.9455 3.9941Q89.7502 3.9941 91.0607 4.6440Q92.3713 5.2939 93.0749 6.4863Q93.7785 7.6787 93.7785 9.3115Q93.7785 10.9551 93.0588 12.1206Q92.3391 13.2861 91.0070 13.8877Q89.6750 14.4893 87.8381 14.4893L83.6594 14.4893L83.6594 11.4922L87.1506 11.4922Q88.0422 11.4922 88.6384 11.2559Q89.2346 11.0195 89.5407 10.5361Q89.8469 10.0527 89.8469 9.3115Q89.8469 8.5596 89.5407 8.0654Q89.2346 7.5713 88.6330 7.3188Q88.0314 7.0664 87.1398 7.0664L85.1848 7.0664L85.1848 20M94.3371 20L90.1799 20L86.2805 12.6846L90.3410 12.6846 M99.1668 7.0879L94.3221 7.0879L94.3221 3.9941L107.7928 3.9941L107.7928 7.0879L102.9480 7.0879L102.9480 20L99.1668 20 M108.6479 3.9941L112.4398 3.9941L112.4398 20L108.6479 20 M121.0400 20.2148Q118.8809 20.2148 117.1675 19.2588Q115.4541 18.3027 114.4604 16.4658Q113.4668 14.6289 113.4668 12.0078Q113.4668 9.3652 114.4712 7.5283Q115.4756 5.6914 117.1943 4.7354Q118.9131 3.7793 121.0400 3.7793Q122.4688 3.7793 123.6826 4.1714Q124.8965 4.5635 125.8311 5.3154Q126.7656 6.0674 127.3511 7.1577Q127.9365 8.2480 128.1084 9.6445L124.2734 9.6445Q124.1768 9.0537 123.9189 8.5864Q123.6611 8.1191 123.2583 7.7861Q122.8555 7.4531 122.3184 7.2813Q121.7813 7.1094 121.1367 7.1094Q119.9658 7.1094 119.1118 7.6895Q118.2578 8.2695 117.8013 9.3599Q117.3447 10.4502 117.3447 12.0078Q117.3447 13.6084 117.8120 14.6987Q118.2793 15.7891 119.1226 16.3369Q119.9658 16.8848 121.1152 16.8848Q121.7598 16.8848 122.2969 16.7129Q122.8340 16.5410 123.2422 16.2080Q123.6504 15.8750 123.9189 15.4077Q124.1875 14.9404 124.2842 14.3496L128.1191 14.3496Q128.0117 15.4238 127.5068 16.4604Q127.0020 17.4971 126.1050 18.3511Q125.2080 19.2051 123.9404 19.7100Q122.6729 20.2148 121.0400 20.2148" fill="#FFFFFF" />
    <path d="M137.0788 20L135.6388 20L135.6388 9.6160L132.4388 9.6160L132.4388 8.3040L140.2788 8.3040L140.2788 9.6160L137.0788 9.6160 M153.4788 20L146.7588 20L146.7588 8.3200L153.4788 8.3200L153.4788 9.6320L148.1828 9.6320L148.1828 13.2480L152.9188 13.2480L152.9188 14.5440L148.1828 14.5440L148.1828 18.6880L153.4788 18.6880 M163.6228 20.1600Q162.5668 20.1600 161.7908 19.7600Q161.0148 19.3600 160.5908 18.6000Q160.1668 17.8400 160.1668 16.8000L160.1668 11.5200Q160.1668 10.4640 160.5908 9.7120Q161.0148 8.9600 161.7908 8.5600Q162.5668 8.1600 163.6228 8.1600Q164.6788 8.1600 165.4468 8.5680Q166.2148 8.9760 166.6308 9.7280Q167.0468 10.4800 167.0468 11.5200L165.6068 11.5200Q165.6068 10.5280 165.0868 9.9920Q164.5668 9.4560 163.6228 9.4560Q162.6788 9.4560 162.1428 9.9840Q161.6068 10.5120 161.6068 11.5040L161.6068 16.8000Q161.6068 17.7920 162.1428 18.3280Q162.6788 18.8640 163.6228 18.8640Q164.5668 18.8640 165.0868 18.3280Q165.6068 17.7920 165.6068 16.8000L167.0468 16.8000Q167.0468 17.8240 166.6308 18.5840Q166.2148 19.3440 165.4468 19.7520Q164.6788 20.1600 163.6228 20.1600 M175.2868 20L173.8468 20L173.8468 8.3200L175.2868 8.3200L175.2868 13.3120L179.0308 13.3120L179.0308 8.3200L180.4708 8.3200L180.4708 20L179.0308 20L179.0308 14.6240L175.2868 14.6240" fill="#FFFFFF" />
    <path d="M53.3600 35.8800L52.6000 35.8800L55.4400 28.3600L56.2000 28.3600 M58.9600 35.8800L58.2000 35.8800L61.0400 28.3600L61.8000 28.3600  M70.2560 35L69.5360 35L69.5360 29.1600L71.4160 29.1600Q71.9600 29.1600 72.3600 29.3720Q72.7600 29.5840 72.9800 29.9680Q73.2000 30.3520 73.2000 30.8800Q73.2000 31.4000 72.9800 31.7880Q72.7600 32.1760 72.3600 32.3880Q71.9600 32.6000 71.4160 32.6000L70.2560 32.6000L70.2560 35M70.2560 29.8080L70.2560 31.9520L71.4160 31.9520Q71.8880 31.9520 72.1720 31.6600Q72.4560 31.3680 72.4560 30.8800Q72.4560 30.3840 72.1720 30.0960Q71.8880 29.8080 71.4160 29.8080 M75.8560 35L75.1360 35L75.1360 29.1600L76.9440 29.1600Q77.4640 29.1600 77.8560 29.3720Q78.2480 29.5840 78.4640 29.9600Q78.6800 30.3360 78.6800 30.8400Q78.6800 31.4320 78.3720 31.8560Q78.0640 32.2800 77.5360 32.4400L78.7600 35L77.9120 35L76.7920 32.5200L75.8560 32.5200L75.8560 35M75.8560 29.8080L75.8560 31.8720L76.9440 31.8720Q77.3920 31.8720 77.6640 31.5880Q77.9360 31.3040 77.9360 30.8400Q77.9360 30.3680 77.6640 30.0880Q77.3920 29.8080 76.9440 29.8080 M82.4000 35.0800Q81.8720 35.0800 81.4920 34.8800Q81.1120 34.6800 80.9080 34.3000Q80.7040 33.9200 80.7040 33.4000L80.7040 30.7600Q80.7040 30.2320 80.9080 29.8560Q81.1120 29.4800 81.4920 29.2800Q81.8720 29.0800 82.4000 29.0800Q82.9280 29.0800 83.3080 29.2800Q83.6880 29.4800 83.8920 29.8560Q84.0960 30.2320 84.0960 30.7520L84.0960 33.4000Q84.0960 33.9200 83.8920 34.3000Q83.6880 34.6800 83.3080 34.8800Q82.9280 35.0800 82.4000 35.0800M82.4000 34.4320Q82.8720 34.4320 83.1240 34.1640Q83.3760 33.8960 83.3760 33.4000L83.3760 30.7600Q83.3760 30.2640 83.1240 29.9960Q82.8720 29.7280 82.4000 29.7280Q81.9360 29.7280 81.6800 29.9960Q81.4240 30.2640 81.4240 30.7600L81.4240 33.4000Q81.4240 33.8960 81.6800 34.1640Q81.9360 34.4320 82.4000 34.4320 M87.0560 35L86.3360 35L86.3360 29.1600L88.2160 29.1600Q88.7600 29.1600 89.1600 29.3720Q89.5600 29.5840 89.7800 29.9680Q90 30.3520 90 30.8800Q90 31.4000 89.7800 31.7880Q89.5600 32.1760 89.1600 32.3880Q88.7600 32.6000 88.2160 32.6000L87.0560 32.6000L87.0560 35M87.0560 29.8080L87.0560 31.9520L88.2160 31.9520Q88.6880 31.9520 88.9720 31.6600Q89.2560 31.3680 89.2560 30.8800Q89.2560 30.3840 88.9720 30.0960Q88.6880 29.8080 88.2160 29.8080 M93.6000 35.0800Q93.0720 35.0800 92.6920 34.8800Q92.3120 34.6800 92.1080 34.3000Q91.9040 33.9200 91.9040 33.4000L91.9040 30.7600Q91.9040 30.2320 92.1080 29.8560Q92.3120 29.4800 92.6920 29.2800Q93.0720 29.0800 93.6000 29.0800Q94.1280 29.0800 94.5080 29.2800Q94.8880 29.4800 95.0920 29.8560Q95.2960 30.2320 95.2960 30.7520L95.2960 33.4000Q95.2960 33.9200 95.0920 34.3000Q94.8880 34.6800 94.5080 34.8800Q94.1280 35.0800 93.6000 35.0800M93.6000 34.4320Q94.0720 34.4320 94.3240 34.1640Q94.5760 33.8960 94.5760 33.4000L94.5760 30.7600Q94.5760 30.2640 94.3240 29.9960Q94.0720 29.7280 93.6000 29.7280Q93.1360 29.7280 92.8800 29.9960Q92.6240 30.2640 92.6240 30.7600L92.6240 33.4000Q92.6240 33.8960 92.8800 34.1640Q93.1360 34.4320 93.6000 34.4320 M99.2320 35.0800Q98.6560 35.0800 98.2440 34.8880Q97.8320 34.6960 97.6080 34.3360Q97.3840 33.9760 97.3760 33.4800L98.0960 33.4800Q98.0960 33.9200 98.3960 34.1760Q98.6960 34.4320 99.2320 34.4320Q99.7360 34.4320 100.0200 34.1840Q100.3040 33.9360 100.3040 33.4960Q100.3040 33.1440 100.1160 32.8800Q99.9280 32.6160 99.5760 32.5120L98.7840 32.2640Q98.1840 32.0800 97.8600 31.6480Q97.5360 31.2160 97.5360 30.6320Q97.5360 30.1600 97.7480 29.8120Q97.9600 29.4640 98.3440 29.2680Q98.7280 29.0720 99.2480 29.0720Q100.0160 29.0720 100.4800 29.5000Q100.9440 29.9280 100.9520 30.6400L100.2320 30.6400Q100.2320 30.2080 99.9720 29.9640Q99.7120 29.7200 99.2400 29.7200Q98.7760 29.7200 98.5160 29.9440Q98.2560 30.1680 98.2560 30.5680Q98.2560 30.9280 98.4480 31.1920Q98.6400 31.4560 99 31.5680L99.8000 31.8240Q100.3840 32.0080 100.7040 32.4480Q101.0240 32.8880 101.0240 33.4800Q101.0240 33.9600 100.8000 34.3200Q100.5760 34.6800 100.1720 34.8800Q99.7680 35.0800 99.2320 35.0800 M105.1600 35L104.4400 35L104.4400 29.8080L102.8400 29.8080L102.8400 29.1520L106.7600 29.1520L106.7600 29.8080L105.1600 29.8080 M109.1360 35L108.4000 35L109.9200 29.1600L110.8880 29.1600L112.4000 35L111.6720 35L111.2880 33.4480L109.5200 33.4480L109.1360 35M110.1120 31.0320L109.6640 32.8400L111.1360 32.8400L110.6880 31.0400Q110.5600 30.5280 110.4880 30.1840Q110.4160 29.8400 110.4000 29.7360Q110.3840 29.8400 110.3120 30.1840Q110.2400 30.5280 110.1120 31.0320  M121.6320 35.0800Q121.1040 35.0800 120.7160 34.8800Q120.3280 34.6800 120.1160 34.3000Q119.9040 33.9200 119.9040 33.4000L119.9040 30.7600Q119.9040 30.2320 120.1160 29.8560Q120.3280 29.4800 120.7160 29.2800Q121.1040 29.0800 121.6320 29.0800Q122.1600 29.0800 122.5440 29.2840Q122.9280 29.4880 123.1360 29.8640Q123.3440 30.2400 123.3440 30.7600L122.6240 30.7600Q122.6240 30.2640 122.3640 29.9960Q122.1040 29.7280 121.6320 29.7280Q121.1600 29.7280 120.8920 29.9920Q120.6240 30.2560 120.6240 30.7520L120.6240 33.4000Q120.6240 33.8960 120.8920 34.1640Q121.1600 34.4320 121.6320 34.4320Q122.1040 34.4320 122.3640 34.1640Q122.6240 33.8960 122.6240 33.4000L123.3440 33.4000Q123.3440 33.9120 123.1360 34.2920Q122.9280 34.6720 122.5440 34.8760Q122.1600 35.0800 121.6320 35.0800 M127.2000 35.0800Q126.6720 35.0800 126.2920 34.8800Q125.9120 34.6800 125.7080 34.3000Q125.5040 33.9200 125.5040 33.4000L125.5040 30.7600Q125.5040 30.2320 125.7080 29.8560Q125.9120 29.4800 126.2920 29.2800Q126.6720 29.0800 127.2000 29.0800Q127.7280 29.0800 128.1080 29.2800Q128.4880 29.4800 128.6920 29.8560Q128.8960 30.2320 128.8960 30.7520L128.8960 33.4000Q128.8960 33.9200 128.6920 34.3000Q128.4880 34.6800 128.1080 34.8800Q127.7280 35.0800 127.2000 35.0800M127.2000 34.4320Q127.6720 34.4320 127.9240 34.1640Q128.1760 33.8960 128.1760 33.4000L128.1760 30.7600Q128.1760 30.2640 127.9240 29.9960Q127.6720 29.7280 127.2000 29.7280Q126.7360 29.7280 126.4800 29.9960Q126.2240 30.2640 126.2240 30.7600L126.2240 33.4000Q126.2240 33.8960 126.4800 34.1640Q126.7360 34.4320 127.2000 34.4320 M131.7120 35L131.0080 35L131.0080 29.1600L131.9520 29.1600L132.5600 31.0480Q132.6480 31.3040 132.7200 31.5560Q132.7920 31.8080 132.8240 31.9440Q132.8640 31.8080 132.9280 31.5560Q132.9920 31.3040 133.0720 31.0400L133.6480 29.1600L134.5920 29.1600L134.5920 35L133.8880 35L133.8880 32.8800Q133.8880 32.5280 133.9120 32.0800Q133.9360 31.6320 133.9760 31.1640Q134.0160 30.6960 134.0600 30.2680Q134.1040 29.8400 134.1360 29.5200L133.1920 32.4400L132.4320 32.4400L131.4800 29.5200Q131.5200 29.8320 131.5600 30.2440Q131.6000 30.6560 131.6320 31.1160Q131.6640 31.5760 131.6880 32.0320Q131.7120 32.4880 131.7120 32.8800 M140.1600 35L136.8000 35L136.8000 29.1600L140.1600 29.1600L140.1600 29.8160L137.5120 29.8160L137.5120 31.6240L139.8800 31.6240L139.8800 32.2720L137.5120 32.2720L137.5120 34.3440L140.1600 34.3440 M143.0560 35L142.3360 35L142.3360 29.1600L144.1440 29.1600Q144.6640 29.1600 145.0560 29.3720Q145.4480 29.5840 145.6640 29.9600Q145.8800 30.3360 145.8800 30.8400Q145.8800 31.4320 145.5720 31.8560Q145.2640 32.2800 144.7360 32.4400L145.9600 35L145.1120 35L143.9920 32.5200L143.0560 32.5200L143.0560 35M143.0560 29.8080L143.0560 31.8720L144.1440 31.8720Q144.5920 31.8720 144.8640 31.5880Q145.1360 31.3040 145.1360 30.8400Q145.1360 30.3680 144.8640 30.0880Q144.5920 29.8080 144.1440 29.8080 M149.6320 35.0800Q149.1040 35.0800 148.7160 34.8800Q148.3280 34.6800 148.1160 34.3000Q147.9040 33.9200 147.9040 33.4000L147.9040 30.7600Q147.9040 30.2320 148.1160 29.8560Q148.3280 29.4800 148.7160 29.2800Q149.1040 29.0800 149.6320 29.0800Q150.1600 29.0800 150.5440 29.2840Q150.9280 29.4880 151.1360 29.8640Q151.3440 30.2400 151.3440 30.7600L150.6240 30.7600Q150.6240 30.2640 150.3640 29.9960Q150.1040 29.7280 149.6320 29.7280Q149.1600 29.7280 148.8920 29.9920Q148.6240 30.2560 148.6240 30.7520L148.6240 33.4000Q148.6240 33.8960 148.8920 34.1640Q149.1600 34.4320 149.6320 34.4320Q150.1040 34.4320 150.3640 34.1640Q150.6240 33.8960 150.6240 33.4000L151.3440 33.4000Q151.3440 33.9120 151.1360 34.2920Q150.9280 34.6720 150.5440 34.8760Q150.1600 35.0800 149.6320 35.0800 M156.7600 35L153.6400 35L153.6400 34.3440L154.8320 34.3440L154.8320 29.8160L153.6400 29.8160L153.6400 29.1600L156.7600 29.1600L156.7600 29.8160L155.5680 29.8160L155.5680 34.3440L156.7600 34.3440 M159.5360 35L158.8000 35L160.3200 29.1600L161.2880 29.1600L162.8000 35L162.0720 35L161.6880 33.4480L159.9200 33.4480L159.5360 35M160.5120 31.0320L160.0640 32.8400L161.5360 32.8400L161.0880 31.0400Q160.9600 30.5280 160.8880 30.1840Q160.8160 29.8400 160.8000 29.7360Q160.7840 29.8400 160.7120 30.1840Q160.6400 30.5280 160.5120 31.0320 M168.2800 35L164.9200 35L164.9200 29.1600L165.6400 29.1600L165.6400 34.3440L168.2800 34.3440" fill="#06b6d4" />
  </g>
</svg>