<?xml version="1.0" encoding="UTF-8" standalone="no"?>
<svg width="163.53" height="50" viewBox="0 0 163.53 50" fill="none" xmlns="http://www.w3.org/2000/svg">
  <g transform="translate(0, 5)">
    
    <g transform="translate(0, 0) scale(0.4)">
      <path d="M20 25L50 75L80 25" stroke="#71717a" stroke-width="8" stroke-linecap="round" stroke-linejoin="round" />
      <circle cx="50" cy="75" r="10" fill="#06b6d4" />
    </g>
    <path d="M66.0957 24L59.6426 24L52.6426 3.6289L58.0703 3.6289L60.9004 12.5293Q61.5703 14.7441 62.1924 17.1777Q62.8145 19.6113 63.4434 22.3047L62.3906 22.3047Q63.0059 19.5977 63.5938 17.1709Q64.1816 14.7441 64.8242 12.5293L67.5449 3.6289L72.9043 3.6289 M87.8559 24L73.7328 24L73.7328 3.6289L87.8695 3.6289L87.8695 7.5664L78.5590 7.5664L78.5590 11.7773L87.1313 11.7773L87.1313 15.6328L78.5590 15.6328L78.5590 20.0625L87.8559 20.0625 M94.2352 24L89.4090 24L89.4090 3.6289L97.7488 3.6289Q100.0457 3.6289 101.7137 4.4561Q103.3816 5.2832 104.2771 6.8008Q105.1727 8.3184 105.1727 10.3965Q105.1727 12.4883 104.2566 13.9717Q103.3406 15.4551 101.6453 16.2207Q99.9500 16.9863 97.6121 16.9863L92.2937 16.9863L92.2937 13.1719L96.7371 13.1719Q97.8719 13.1719 98.6307 12.8711Q99.3895 12.5703 99.7791 11.9551Q100.1687 11.3398 100.1687 10.3965Q100.1687 9.4395 99.7791 8.8105Q99.3895 8.1816 98.6238 7.8604Q97.8582 7.5391 96.7234 7.5391L94.2352 7.5391L94.2352 24M105.8836 24L100.5926 24L95.6297 14.6895L100.7977 14.6895 M112.0305 7.5664L105.8645 7.5664L105.8645 3.6289L123.0090 3.6289L123.0090 7.5664L116.8430 7.5664L116.8430 24L112.0305 24 M124.0973 3.6289L128.9234 3.6289L128.9234 24L124.0973 24 M139.8691 24.2734Q137.1211 24.2734 134.9404 23.0566Q132.7598 21.8398 131.4951 19.5020Q130.2305 17.1641 130.2305 13.8281Q130.2305 10.4648 131.5088 8.1270Q132.7871 5.7891 134.9746 4.5723Q137.1621 3.3555 139.8691 3.3555Q141.6875 3.3555 143.2324 3.8545Q144.7773 4.3535 145.9668 5.3105Q147.1562 6.2676 147.9014 7.6553Q148.6465 9.0430 148.8652 10.8203L143.9844 10.8203Q143.8613 10.0684 143.5332 9.4736Q143.2051 8.8789 142.6924 8.4551Q142.1797 8.0313 141.4961 7.8125Q140.8125 7.5938 139.9922 7.5938Q138.5020 7.5938 137.4150 8.3320Q136.3281 9.0703 135.7471 10.4580Q135.1660 11.8457 135.1660 13.8281Q135.1660 15.8652 135.7607 17.2529Q136.3555 18.6406 137.4287 19.3379Q138.5020 20.0352 139.9648 20.0352Q140.7852 20.0352 141.4687 19.8164Q142.1523 19.5977 142.6719 19.1738Q143.1914 18.7500 143.5332 18.1553Q143.8750 17.5605 143.9980 16.8086L148.8789 16.8086Q148.7422 18.1758 148.0996 19.4951Q147.4570 20.8145 146.3154 21.9014Q145.1738 22.9883 143.5605 23.6309Q141.9473 24.2734 139.8691 24.2734" fill="#FFFFFF" />
    <path d="M55.7950 38L54.8050 38L54.8050 30.8610L52.6050 30.8610L52.6050 29.9590L57.9950 29.9590L57.9950 30.8610L55.7950 30.8610 M67.0700 38L62.4500 38L62.4500 29.9700L67.0700 29.9700L67.0700 30.8720L63.4290 30.8720L63.4290 33.3580L66.6850 33.3580L66.6850 34.2490L63.4290 34.2490L63.4290 37.0980L67.0700 37.0980 M74.0440 38.1100Q73.3180 38.1100 72.7845 37.8350Q72.2510 37.5600 71.9595 37.0375Q71.6680 36.5150 71.6680 35.8000L71.6680 32.1700Q71.6680 31.4440 71.9595 30.9270Q72.2510 30.4100 72.7845 30.1350Q73.3180 29.8600 74.0440 29.8600Q74.7700 29.8600 75.2980 30.1405Q75.8260 30.4210 76.1120 30.9380Q76.3980 31.4550 76.3980 32.1700L75.4080 32.1700Q75.4080 31.4880 75.0505 31.1195Q74.6930 30.7510 74.0440 30.7510Q73.3950 30.7510 73.0265 31.1140Q72.6580 31.4770 72.6580 32.1590L72.6580 35.8000Q72.6580 36.4820 73.0265 36.8505Q73.3950 37.2190 74.0440 37.2190Q74.6930 37.2190 75.0505 36.8505Q75.4080 36.4820 75.4080 35.8000L76.3980 35.8000Q76.3980 36.5040 76.1120 37.0265Q75.8260 37.5490 75.2980 37.8295Q74.7700 38.1100 74.0440 38.1100 M82.0630 38L81.0730 38L81.0730 29.9700L82.0630 29.9700L82.0630 33.4020L84.6370 33.4020L84.6370 29.9700L85.6270 29.9700L85.6270 38L84.6370 38L84.6370 34.3040L82.0630 34.3040" fill="#A1A1AA" />
  </g>
</svg>