<?xml version="1.0" encoding="UTF-8" standalone="no"?>
<svg width="304.26" height="46" viewBox="0 0 304.26 46" fill="none" xmlns="http://www.w3.org/2000/svg">
  <g transform="translate(0, 3)">
    
    <g transform="translate(0, 0) scale(0.4)">
      <path d="M20 25L50 75L80 25" stroke="#71717a" stroke-width="8" stroke-linecap="round" stroke-linejoin="round" />
      <circle cx="50" cy="75" r="10" fill="#f97316" />
    </g>
    <path d="M66.0957 30L59.6426 30L52.6426 9.6289L58.0703 9.6289L60.9004 18.5293Q61.5703 20.7441 62.1924 23.1777Q62.8145 25.6113 63.4434 28.3047L62.3906 28.3047Q63.0059 25.5977 63.5938 23.1709Q64.1816 20.7441 64.8242 18.5293L67.5449 9.6289L72.9043 9.6289 M87.8559 30L73.7328 30L73.7328 9.6289L87.8695 9.6289L87.8695 13.5664L78.5590 13.5664L78.5590 17.7773L87.1313 17.7773L87.1313 21.6328L78.5590 21.6328L78.5590 26.0625L87.8559 26.0625 M94.2352 30L89.4090 30L89.4090 9.6289L97.7488 9.6289Q100.0457 9.6289 101.7137 10.4561Q103.3816 11.2832 104.2771 12.8008Q105.1727 14.3184 105.1727 16.3965Q105.1727 18.4883 104.2566 19.9717Q103.3406 21.4551 101.6453 22.2207Q99.9500 22.9863 97.6121 22.9863L92.2937 22.9863L92.2937 19.1719L96.7371 19.1719Q97.8719 19.1719 98.6307 18.8711Q99.3895 18.5703 99.7791 17.9551Q100.1687 17.3398 100.1687 16.3965Q100.1687 15.4395 99.7791 14.8105Q99.3895 14.1816 98.6238 13.8604Q97.8582 13.5391 96.7234 13.5391L94.2352 13.5391L94.2352 30M105.8836 30L100.5926 30L95.6297 20.6895L100.7977 20.6895 M112.0305 13.5664L105.8645 13.5664L105.8645 9.6289L123.0090 9.6289L123.0090 13.5664L116.8430 13.5664L116.8430 30L112.0305 30 M124.0973 9.6289L128.9234 9.6289L128.9234 30L124.0973 30 M139.8691 30.2734Q137.1211 30.2734 134.9404 29.0566Q132.7598 27.8398 131.4951 25.5020Q130.2305 23.1641 130.2305 19.8281Q130.2305 16.4648 131.5088 14.1270Q132.7871 11.7891 134.9746 10.5723Q137.1621 9.3555 139.8691 9.3555Q141.6875 9.3555 143.2324 9.8545Q144.7773 10.3535 145.9668 11.3105Q147.1562 12.2676 147.9014 13.6553Q148.6465 15.0430 148.8652 16.8203L143.9844 16.8203Q143.8613 16.0684 143.5332 15.4736Q143.2051 14.8789 142.6924 14.4551Q142.1797 14.0313 141.4961 13.8125Q140.8125 13.5938 139.9922 13.5938Q138.5020 13.5938 137.4150 14.3320Q136.3281 15.0703 135.7471 16.4580Q135.1660 17.8457 135.1660 19.8281Q135.1660 21.8652 135.7607 23.2529Q136.3555 24.6406 137.4287 25.3379Q138.5020 26.0352 139.9648 26.0352Q140.7852 26.0352 141.4687 25.8164Q142.1523 25.5977 142.6719 25.1738Q143.1914 24.7500 143.5332 24.1553Q143.8750 23.5605 143.9980 22.8086L148.8789 22.8086Q148.7422 24.1758 148.0996 25.4951Q147.4570 26.8145 146.3154 27.9014Q145.1738 28.9883 143.5605 29.6309Q141.9473 30.2734 139.8691 30.2734" fill="#FFFFFF" />
    <path d="M155.5286 30L154.0566 30L157.0966 18.3200L159.0326 18.3200L162.0566 30L160.6006 30L159.8326 26.8960L156.2966 26.8960L155.5286 30M157.4806 22.0640L156.5846 25.6800L159.5286 25.6800L158.6326 22.0800Q158.3766 21.0560 158.2326 20.3680Q158.0886 19.6800 158.0566 19.4720Q158.0246 19.6800 157.8806 20.3680Q157.7366 21.0560 157.4806 22.0640 M171.6566 30.1600Q170.0246 30.1600 169.1606 29.2560Q168.2966 28.3520 168.2966 26.8000L168.2966 18.3200L169.7366 18.3200L169.7366 26.8000Q169.7366 27.7600 170.2086 28.3200Q170.6806 28.8800 171.6566 28.8800Q172.6166 28.8800 173.0966 28.3200Q173.5766 27.7600 173.5766 26.8000L173.5766 18.3200L175.0166 18.3200L175.0166 26.8000Q175.0166 28.3680 174.1606 29.2640Q173.3046 30.1600 171.6566 30.1600 M185.9766 30L184.5366 30L184.5366 19.6160L181.3366 19.6160L181.3366 18.3040L189.1766 18.3040L189.1766 19.6160L185.9766 19.6160 M198.8566 30.1600Q197.8006 30.1600 197.0406 29.7600Q196.2806 29.3600 195.8726 28.6000Q195.4646 27.8400 195.4646 26.8000L195.4646 21.5200Q195.4646 20.4640 195.8726 19.7120Q196.2806 18.9600 197.0406 18.5600Q197.8006 18.1600 198.8566 18.1600Q199.9126 18.1600 200.6726 18.5600Q201.4326 18.9600 201.8406 19.7120Q202.2486 20.4640 202.2486 21.5040L202.2486 26.8000Q202.2486 27.8400 201.8406 28.6000Q201.4326 29.3600 200.6726 29.7600Q199.9126 30.1600 198.8566 30.1600M198.8566 28.8640Q199.8006 28.8640 200.3046 28.3280Q200.8086 27.7920 200.8086 26.8000L200.8086 21.5200Q200.8086 20.5280 200.3046 19.9920Q199.8006 19.4560 198.8566 19.4560Q197.9286 19.4560 197.4166 19.9920Q196.9046 20.5280 196.9046 21.5200L196.9046 26.8000Q196.9046 27.7920 197.4166 28.3280Q197.9286 28.8640 198.8566 28.8640 M210.2806 30L208.8726 30L208.8726 18.3200L210.7606 18.3200L211.9766 22.0960Q212.1526 22.6080 212.2966 23.1120Q212.4406 23.6160 212.5046 23.8880Q212.5846 23.6160 212.7126 23.1120Q212.8406 22.6080 213.0006 22.0800L214.1526 18.3200L216.0406 18.3200L216.0406 30L214.6326 30L214.6326 25.7600Q214.6326 25.0560 214.6806 24.1600Q214.7286 23.2640 214.8086 22.3280Q214.8886 21.3920 214.9766 20.5360Q215.0646 19.6800 215.1286 19.0400L213.2406 24.8800L211.7206 24.8800L209.8166 19.0400Q209.8966 19.6640 209.9766 20.4880Q210.0566 21.3120 210.1206 22.2320Q210.1846 23.1520 210.2326 24.0640Q210.2806 24.9760 210.2806 25.7600 M223.5286 30L222.0566 30L225.0966 18.3200L227.0326 18.3200L230.0566 30L228.6006 30L227.8326 26.8960L224.2966 26.8960L223.5286 30M225.4806 22.0640L224.5846 25.6800L227.5286 25.6800L226.6326 22.0800Q226.3766 21.0560 226.2326 20.3680Q226.0886 19.6800 226.0566 19.4720Q226.0246 19.6800 225.8806 20.3680Q225.7366 21.0560 225.4806 22.0640 M239.5766 33.2480L238.2166 33.2480L238.2166 32.3680L239.3366 32.3680Q239.6886 32.3680 239.9046 32.1840Q240.1206 32 240.1206 31.7920Q240.1206 31.5200 239.6806 31.3120Q239.2406 31.1040 238.4406 31.1040L239.0006 29.5840L239.9126 29.5840L239.5766 30.5600Q239.9926 30.6080 240.4406 30.7680Q240.8886 30.9280 241.1926 31.2160Q241.4966 31.5040 241.4966 31.9200Q241.4966 32.4640 240.9686 32.8560Q240.4406 33.2480 239.5766 33.2480M239.7206 30.1600Q238.6646 30.1600 237.8886 29.7600Q237.1126 29.3600 236.6886 28.6000Q236.2646 27.8400 236.2646 26.8000L236.2646 21.5200Q236.2646 20.4640 236.6886 19.7120Q237.1126 18.9600 237.8886 18.5600Q238.6646 18.1600 239.7206 18.1600Q240.7766 18.1600 241.5446 18.5680Q242.3126 18.9760 242.7286 19.7280Q243.1446 20.4800 243.1446 21.5200L241.7046 21.5200Q241.7046 20.5280 241.1846 19.9920Q240.6646 19.4560 239.7206 19.4560Q238.7766 19.4560 238.2406 19.9840Q237.7046 20.5120 237.7046 21.5040L237.7046 26.8000Q237.7046 27.7920 238.2406 28.3280Q238.7766 28.8640 239.7206 28.8640Q240.6646 28.8640 241.1846 28.3280Q241.7046 27.7920 241.7046 26.8000L243.1446 26.8000Q243.1446 27.8240 242.7286 28.5840Q242.3126 29.3440 241.5446 29.7520Q240.7766 30.1600 239.7206 30.1600 M253.2566 30.1600Q252.2006 30.1600 251.4406 29.7600Q250.6806 29.3600 250.2726 28.6000Q249.8646 27.8400 249.8646 26.8000L249.8646 21.5200Q249.8646 20.4640 250.2726 19.7120Q250.6806 18.9600 251.4406 18.5600Q252.2006 18.1600 253.2566 18.1600Q254.3126 18.1600 255.0726 18.5600Q255.8326 18.9600 256.2406 19.7120Q256.6486 20.4640 256.6486 21.5040L256.6486 26.8000Q256.6486 27.8400 256.2406 28.6000Q255.8326 29.3600 255.0726 29.7600Q254.3126 30.1600 253.2566 30.1600M253.2566 28.8640Q254.2006 28.8640 254.7046 28.3280Q255.2086 27.7920 255.2086 26.8000L255.2086 21.5200Q255.2086 20.5280 254.7046 19.9920Q254.2006 19.4560 253.2566 19.4560Q252.3286 19.4560 251.8166 19.9920Q251.3046 20.5280 251.3046 21.5200L251.3046 26.8000Q251.3046 27.7920 251.8166 28.3280Q252.3286 28.8640 253.2566 28.8640M254.3766 16.9600Q253.8966 16.9600 253.5926 16.7920Q253.2886 16.6240 253.0806 16.4000Q252.8726 16.1760 252.6806 16.0080Q252.4886 15.8400 252.2166 15.8400Q252.0086 15.8400 251.8726 15.9760Q251.7366 16.1120 251.7366 16.4000L251.7366 16.8800L250.6966 16.8800L250.6966 16.4000Q250.6966 15.6800 251.0966 15.2800Q251.4966 14.8800 252.1366 14.8800Q252.6166 14.8800 252.9206 15.0480Q253.2246 15.2160 253.4326 15.4400Q253.6406 15.6640 253.8326 15.8320Q254.0246 16 254.2966 16Q254.5206 16 254.6486 15.8640Q254.7766 15.7280 254.7766 15.4400L254.7766 14.9600L255.8166 14.9600L255.8166 15.4400Q255.8166 16.1600 255.4246 16.5600Q255.0326 16.9600 254.3766 16.9600 M270.3766 30L263.6566 30L263.6566 18.3200L270.3766 18.3200L270.3766 19.6320L265.0806 19.6320L265.0806 23.2480L269.8166 23.2480L269.8166 24.5440L265.0806 24.5440L265.0806 28.6880L270.3766 28.6880 M280.5206 30.1600Q279.3686 30.1600 278.5446 29.7760Q277.7206 29.3920 277.2726 28.6720Q276.8246 27.9520 276.8086 26.9600L278.2486 26.9600Q278.2486 27.8400 278.8486 28.3520Q279.4486 28.8640 280.5206 28.8640Q281.5286 28.8640 282.0966 28.3680Q282.6646 27.8720 282.6646 26.9920Q282.6646 26.2880 282.2886 25.7600Q281.9126 25.2320 281.2086 25.0240L279.6246 24.5280Q278.4246 24.1600 277.7766 23.2960Q277.1286 22.4320 277.1286 21.2640Q277.1286 20.3200 277.5526 19.6240Q277.9766 18.9280 278.7446 18.5360Q279.5126 18.1440 280.5526 18.1440Q282.0886 18.1440 283.0166 19Q283.9446 19.8560 283.9606 21.2800L282.5206 21.2800Q282.5206 20.4160 282.0006 19.9280Q281.4806 19.4400 280.5366 19.4400Q279.6086 19.4400 279.0886 19.8880Q278.5686 20.3360 278.5686 21.1360Q278.5686 21.8560 278.9526 22.3840Q279.3366 22.9120 280.0566 23.1360L281.6566 23.6480Q282.8246 24.0160 283.4646 24.8960Q284.1046 25.7760 284.1046 26.9600Q284.1046 27.9200 283.6566 28.6400Q283.2086 29.3600 282.4006 29.7600Q281.5926 30.1600 280.5206 30.1600" fill="#f97316" />
  </g>
</svg>