<?xml version="1.0" encoding="UTF-8" standalone="no"?>
<svg width="317.86" height="46" viewBox="0 0 317.86 46" fill="none" xmlns="http://www.w3.org/2000/svg">
  <g transform="translate(0, 3)">
    
    <g transform="translate(0, 0) scale(0.4)">
      <path d="M20 25L50 75L80 25" stroke="#71717a" stroke-width="8" stroke-linecap="round" stroke-linejoin="round" />
      <circle cx="50" cy="75" r="10" fill="#3b82f6" />
    </g>
    <path d="M66.0957 30L59.6426 30L52.6426 9.6289L58.0703 9.6289L60.9004 18.5293Q61.5703 20.7441 62.1924 23.1777Q62.8145 25.6113 63.4434 28.3047L62.3906 28.3047Q63.0059 25.5977 63.5938 23.1709Q64.1816 20.7441 64.8242 18.5293L67.5449 9.6289L72.9043 9.6289 M87.8559 30L73.7328 30L73.7328 9.6289L87.8695 9.6289L87.8695 13.5664L78.5590 13.5664L78.5590 17.7773L87.1313 17.7773L87.1313 21.6328L78.5590 21.6328L78.5590 26.0625L87.8559 26.0625 M94.2352 30L89.4090 30L89.4090 9.6289L97.7488 9.6289Q100.0457 9.6289 101.7137 10.4561Q103.3816 11.2832 104.2771 12.8008Q105.1727 14.3184 105.1727 16.3965Q105.1727 18.4883 104.2566 19.9717Q103.3406 21.4551 101.6453 22.2207Q99.9500 22.9863 97.6121 22.9863L92.2937 22.9863L92.2937 19.1719L96.7371 19.1719Q97.8719 19.1719 98.6307 18.8711Q99.3895 18.5703 99.7791 17.9551Q100.1687 17.3398 100.1687 16.3965Q100.1687 15.4395 99.7791 14.8105Q99.3895 14.1816 98.6238 13.8604Q97.8582 13.5391 96.7234 13.5391L94.2352 13.5391L94.2352 30M105.8836 30L100.5926 30L95.6297 20.6895L100.7977 20.6895 M112.0305 13.5664L105.8645 13.5664L105.8645 9.6289L123.0090 9.6289L123.0090 13.5664L116.8430 13.5664L116.8430 30L112.0305 30 M124.0973 9.6289L128.9234 9.6289L128.9234 30L124.0973 30 M139.8691 30.2734Q137.1211 30.2734 134.9404 29.0566Q132.7598 27.8398 131.4951 25.5020Q130.2305 23.1641 130.2305 19.8281Q130.2305 16.4648 131.5088 14.1270Q132.7871 11.7891 134.9746 10.5723Q137.1621 9.3555 139.8691 9.3555Q141.6875 9.3555 143.2324 9.8545Q144.7773 10.3535 145.9668 11.3105Q147.1562 12.2676 147.9014 13.6553Q148.6465 15.0430 148.8652 16.8203L143.9844 16.8203Q143.8613 16.0684 143.5332 15.4736Q143.2051 14.8789 142.6924 14.4551Q142.1797 14.0313 141.4961 13.8125Q140.8125 13.5938 139.9922 13.5938Q138.5020 13.5938 137.4150 14.3320Q136.3281 15.0703 135.7471 16.4580Q135.1660 17.8457 135.1660 19.8281Q135.1660 21.8652 135.7607 23.2529Q136.3555 24.6406 137.4287 25.3379Q138.5020 26.0352 139.9648 26.0352Q140.7852 26.0352 141.4687 25.8164Q142.1523 25.5977 142.6719 25.1738Q143.1914 24.7500 143.5332 24.1553Q143.8750 23.5605 143.9980 22.8086L148.8789 22.8086Q148.7422 24.1758 148.0996 25.4951Q147.4570 26.8145 146.3154 27.9014Q145.1738 28.9883 143.5605 29.6309Q141.9473 30.2734 139.8691 30.2734" fill="#FFFFFF" />
    <path d="M158.1206 30.1600Q157.0646 30.1600 156.2886 29.7600Q155.5126 29.3600 155.0886 28.6000Q154.6646 27.8400 154.6646 26.8000L154.6646 21.5200Q154.6646 20.4640 155.0886 19.7120Q155.5126 18.9600 156.2886 18.5600Q157.0646 18.1600 158.1206 18.1600Q159.1766 18.1600 159.9446 18.5680Q160.7126 18.9760 161.1286 19.7280Q161.5446 20.4800 161.5446 21.5200L160.1046 21.5200Q160.1046 20.5280 159.5846 19.9920Q159.0646 19.4560 158.1206 19.4560Q157.1766 19.4560 156.6406 19.9840Q156.1046 20.5120 156.1046 21.5040L156.1046 26.8000Q156.1046 27.7920 156.6406 28.3280Q157.1766 28.8640 158.1206 28.8640Q159.0646 28.8640 159.5846 28.3280Q160.1046 27.7920 160.1046 26.8000L161.5446 26.8000Q161.5446 27.8240 161.1286 28.5840Q160.7126 29.3440 159.9446 29.7520Q159.1766 30.1600 158.1206 30.1600 M171.6566 30.1600Q170.6006 30.1600 169.8406 29.7600Q169.0806 29.3600 168.6726 28.6000Q168.2646 27.8400 168.2646 26.8000L168.2646 21.5200Q168.2646 20.4640 168.6726 19.7120Q169.0806 18.9600 169.8406 18.5600Q170.6006 18.1600 171.6566 18.1600Q172.7126 18.1600 173.4726 18.5600Q174.2326 18.9600 174.6406 19.7120Q175.0486 20.4640 175.0486 21.5040L175.0486 26.8000Q175.0486 27.8400 174.6406 28.6000Q174.2326 29.3600 173.4726 29.7600Q172.7126 30.1600 171.6566 30.1600M171.6566 28.8640Q172.6006 28.8640 173.1046 28.3280Q173.6086 27.7920 173.6086 26.8000L173.6086 21.5200Q173.6086 20.5280 173.1046 19.9920Q172.6006 19.4560 171.6566 19.4560Q170.7286 19.4560 170.2166 19.9920Q169.7046 20.5280 169.7046 21.5200L169.7046 26.8000Q169.7046 27.7920 170.2166 28.3280Q170.7286 28.8640 171.6566 28.8640 M183.2886 30L181.8966 30L181.8966 18.3200L183.8166 18.3200L187.3846 28.3200Q187.3526 27.9200 187.3126 27.3360Q187.2726 26.7520 187.2486 26.1040Q187.2246 25.4560 187.2246 24.8800L187.2246 18.3200L188.6166 18.3200L188.6166 30L186.6966 30L183.1446 20Q183.1766 20.3840 183.2086 20.9680Q183.2406 21.5520 183.2646 22.2000Q183.2886 22.8480 183.2886 23.4400 M198.9206 30.1600Q197.7686 30.1600 196.9446 29.7760Q196.1206 29.3920 195.6726 28.6720Q195.2246 27.9520 195.2086 26.9600L196.6486 26.9600Q196.6486 27.8400 197.2486 28.3520Q197.8486 28.8640 198.9206 28.8640Q199.9286 28.8640 200.4966 28.3680Q201.0646 27.8720 201.0646 26.9920Q201.0646 26.2880 200.6886 25.7600Q200.3126 25.2320 199.6086 25.0240L198.0246 24.5280Q196.8246 24.1600 196.1766 23.2960Q195.5286 22.4320 195.5286 21.2640Q195.5286 20.3200 195.9526 19.6240Q196.3766 18.9280 197.1446 18.5360Q197.9126 18.1440 198.9526 18.1440Q200.4886 18.1440 201.4166 19Q202.3446 19.8560 202.3606 21.2800L200.9206 21.2800Q200.9206 20.4160 200.4006 19.9280Q199.8806 19.4400 198.9366 19.4400Q198.0086 19.4400 197.4886 19.8880Q196.9686 20.3360 196.9686 21.1360Q196.9686 21.8560 197.3526 22.3840Q197.7366 22.9120 198.4566 23.1360L200.0566 23.6480Q201.2246 24.0160 201.8646 24.8960Q202.5046 25.7760 202.5046 26.9600Q202.5046 27.9200 202.0566 28.6400Q201.6086 29.3600 200.8006 29.7600Q199.9926 30.1600 198.9206 30.1600 M212.4566 30.1600Q210.8246 30.1600 209.9606 29.2560Q209.0966 28.3520 209.0966 26.8000L209.0966 18.3200L210.5366 18.3200L210.5366 26.8000Q210.5366 27.7600 211.0086 28.3200Q211.4806 28.8800 212.4566 28.8800Q213.4166 28.8800 213.8966 28.3200Q214.3766 27.7600 214.3766 26.8000L214.3766 18.3200L215.8166 18.3200L215.8166 26.8000Q215.8166 28.3680 214.9606 29.2640Q214.1046 30.1600 212.4566 30.1600 M229.8166 30L223.0966 30L223.0966 18.3200L224.5366 18.3200L224.5366 28.6880L229.8166 28.6880 M240.3766 30L238.9366 30L238.9366 19.6160L235.7366 19.6160L235.7366 18.3040L243.5766 18.3040L243.5766 19.6160L240.3766 19.6160 M253.2566 30.1600Q252.2006 30.1600 251.4406 29.7600Q250.6806 29.3600 250.2726 28.6000Q249.8646 27.8400 249.8646 26.8000L249.8646 21.5200Q249.8646 20.4640 250.2726 19.7120Q250.6806 18.9600 251.4406 18.5600Q252.2006 18.1600 253.2566 18.1600Q254.3126 18.1600 255.0726 18.5600Q255.8326 18.9600 256.2406 19.7120Q256.6486 20.4640 256.6486 21.5040L256.6486 26.8000Q256.6486 27.8400 256.2406 28.6000Q255.8326 29.3600 255.0726 29.7600Q254.3126 30.1600 253.2566 30.1600M253.2566 28.8640Q254.2006 28.8640 254.7046 28.3280Q255.2086 27.7920 255.2086 26.8000L255.2086 21.5200Q255.2086 20.5280 254.7046 19.9920Q254.2006 19.4560 253.2566 19.4560Q252.3286 19.4560 251.8166 19.9920Q251.3046 20.5280 251.3046 21.5200L251.3046 26.8000Q251.3046 27.7920 251.8166 28.3280Q252.3286 28.8640 253.2566 28.8640 M264.9686 30L263.5286 30L263.5286 18.3200L267.1446 18.3200Q268.1846 18.3200 268.9686 18.7440Q269.7526 19.1680 270.1846 19.9200Q270.6166 20.6720 270.6166 21.6800Q270.6166 22.8640 270.0006 23.7120Q269.3846 24.5600 268.3286 24.8800L270.7766 30L269.0806 30L266.8406 25.0400L264.9686 25.0400L264.9686 30M264.9686 19.6160L264.9686 23.7440L267.1446 23.7440Q268.0406 23.7440 268.5846 23.1760Q269.1286 22.6080 269.1286 21.6800Q269.1286 20.7360 268.5846 20.1760Q268.0406 19.6160 267.1446 19.6160 M283.5766 30L277.3366 30L277.3366 28.6880L279.7206 28.6880L279.7206 19.6320L277.3366 19.6320L277.3366 18.3200L283.5766 18.3200L283.5766 19.6320L281.1926 19.6320L281.1926 28.6880L283.5766 28.6880 M291.5286 30L290.0566 30L293.0966 18.3200L295.0326 18.3200L298.0566 30L296.6006 30L295.8326 26.8960L292.2966 26.8960L291.5286 30M293.4806 22.0640L292.5846 25.6800L295.5286 25.6800L294.6326 22.0800Q294.3766 21.0560 294.2326 20.3680Q294.0886 19.6800 294.0566 19.4720Q294.0246 19.6800 293.8806 20.3680Q293.7366 21.0560 293.4806 22.0640" fill="#3b82f6" />
  </g>
</svg>