<?xml version="1.0" encoding="UTF-8" standalone="no"?>
<svg width="304.26" height="46" viewBox="0 0 304.26 46" fill="none" xmlns="http://www.w3.org/2000/svg">
  <g transform="translate(0, 3)">
    
    <g transform="translate(0, 0) scale(0.4)">
      <path d="M20 25L50 75L80 25" stroke="#71717a" stroke-width="8" stroke-linecap="round" stroke-linejoin="round" />
      <circle cx="50" cy="75" r="10" fill="#f43f5e" />
    </g>
    <path d="M66.0957 30L59.6426 30L52.6426 9.6289L58.0703 9.6289L60.9004 18.5293Q61.5703 20.7441 62.1924 23.1777Q62.8145 25.6113 63.4434 28.3047L62.3906 28.3047Q63.0059 25.5977 63.5938 23.1709Q64.1816 20.7441 64.8242 18.5293L67.5449 9.6289L72.9043 9.6289 M87.8559 30L73.7328 30L73.7328 9.6289L87.8695 9.6289L87.8695 13.5664L78.5590 13.5664L78.5590 17.7773L87.1313 17.7773L87.1313 21.6328L78.5590 21.6328L78.5590 26.0625L87.8559 26.0625 M94.2352 30L89.4090 30L89.4090 9.6289L97.7488 9.6289Q100.0457 9.6289 101.7137 10.4561Q103.3816 11.2832 104.2771 12.8008Q105.1727 14.3184 105.1727 16.3965Q105.1727 18.4883 104.2566 19.9717Q103.3406 21.4551 101.6453 22.2207Q99.9500 22.9863 97.6121 22.9863L92.2937 22.9863L92.2937 19.1719L96.7371 19.1719Q97.8719 19.1719 98.6307 18.8711Q99.3895 18.5703 99.7791 17.9551Q100.1687 17.3398 100.1687 16.3965Q100.1687 15.4395 99.7791 14.8105Q99.3895 14.1816 98.6238 13.8604Q97.8582 13.5391 96.7234 13.5391L94.2352 13.5391L94.2352 30M105.8836 30L100.5926 30L95.6297 20.6895L100.7977 20.6895 M112.0305 13.5664L105.8645 13.5664L105.8645 9.6289L123.0090 9.6289L123.0090 13.5664L116.8430 13.5664L116.8430 30L112.0305 30 M124.0973 9.6289L128.9234 9.6289L128.9234 30L124.0973 30 M139.8691 30.2734Q137.1211 30.2734 134.9404 29.0566Q132.7598 27.8398 131.4951 25.5020Q130.2305 23.1641 130.2305 19.8281Q130.2305 16.4648 131.5088 14.1270Q132.7871 11.7891 134.9746 10.5723Q137.1621 9.3555 139.8691 9.3555Q141.6875 9.3555 143.2324 9.8545Q144.7773 10.3535 145.9668 11.3105Q147.1562 12.2676 147.9014 13.6553Q148.6465 15.0430 148.8652 16.8203L143.9844 16.8203Q143.8613 16.0684 143.5332 15.4736Q143.2051 14.8789 142.6924 14.4551Q142.1797 14.0313 141.4961 13.8125Q140.8125 13.5938 139.9922 13.5938Q138.5020 13.5938 137.4150 14.3320Q136.3281 15.0703 135.7471 16.4580Q135.1660 17.8457 135.1660 19.8281Q135.1660 21.8652 135.7607 23.2529Q136.3555 24.6406 137.4287 25.3379Q138.5020 26.0352 139.9648 26.0352Q140.7852 26.0352 141.4687 25.8164Q142.1523 25.5977 142.6719 25.1738Q143.1914 24.7500 143.5332 24.1553Q143.8750 23.5605 143.9980 22.8086L148.8789 22.8086Q148.7422 24.1758 148.0996 25.4951Q147.4570 26.8145 146.3154 27.9014Q145.1738 28.9883 143.5605 29.6309Q141.9473 30.2734 139.8691 30.2734" fill="#FFFFFF" />
    <path d="M156.2166 30L154.7766 30L154.7766 18.3040L161.6566 18.3040L161.6566 19.6160L156.1846 19.6160L156.1846 23.5040L161.2406 23.5040L161.2406 24.8160L156.2166 24.8160 M171.6566 30.1600Q170.6006 30.1600 169.8406 29.7600Q169.0806 29.3600 168.6726 28.6000Q168.2646 27.8400 168.2646 26.8000L168.2646 21.5200Q168.2646 20.4640 168.6726 19.7120Q169.0806 18.9600 169.8406 18.5600Q170.6006 18.1600 171.6566 18.1600Q172.7126 18.1600 173.4726 18.5600Q174.2326 18.9600 174.6406 19.7120Q175.0486 20.4640 175.0486 21.5040L175.0486 26.8000Q175.0486 27.8400 174.6406 28.6000Q174.2326 29.3600 173.4726 29.7600Q172.7126 30.1600 171.6566 30.1600M171.6566 28.8640Q172.6006 28.8640 173.1046 28.3280Q173.6086 27.7920 173.6086 26.8000L173.6086 21.5200Q173.6086 20.5280 173.1046 19.9920Q172.6006 19.4560 171.6566 19.4560Q170.7286 19.4560 170.2166 19.9920Q169.7046 20.5280 169.7046 21.5200L169.7046 26.8000Q169.7046 27.7920 170.2166 28.3280Q170.7286 28.8640 171.6566 28.8640 M185.9766 30L184.5366 30L184.5366 19.6160L181.3366 19.6160L181.3366 18.3040L189.1766 18.3040L189.1766 19.6160L185.9766 19.6160 M198.8566 30.1600Q197.8006 30.1600 197.0406 29.7600Q196.2806 29.3600 195.8726 28.6000Q195.4646 27.8400 195.4646 26.8000L195.4646 21.5200Q195.4646 20.4640 195.8726 19.7120Q196.2806 18.9600 197.0406 18.5600Q197.8006 18.1600 198.8566 18.1600Q199.9126 18.1600 200.6726 18.5600Q201.4326 18.9600 201.8406 19.7120Q202.2486 20.4640 202.2486 21.5040L202.2486 26.8000Q202.2486 27.8400 201.8406 28.6000Q201.4326 29.3600 200.6726 29.7600Q199.9126 30.1600 198.8566 30.1600M198.8566 28.8640Q199.8006 28.8640 200.3046 28.3280Q200.8086 27.7920 200.8086 26.8000L200.8086 21.5200Q200.8086 20.5280 200.3046 19.9920Q199.8006 19.4560 198.8566 19.4560Q197.9286 19.4560 197.4166 19.9920Q196.9046 20.5280 196.9046 21.5200L196.9046 26.8000Q196.9046 27.7920 197.4166 28.3280Q197.9286 28.8640 198.8566 28.8640 M212.5206 30.1600Q211.4646 30.1600 210.6886 29.7600Q209.9126 29.3600 209.4886 28.6000Q209.0646 27.8400 209.0646 26.8000L209.0646 21.5200Q209.0646 20.4640 209.4886 19.7120Q209.9126 18.9600 210.6886 18.5600Q211.4646 18.1600 212.5206 18.1600Q213.5766 18.1600 214.3446 18.5680Q215.1126 18.9760 215.5286 19.7280Q215.9446 20.4800 215.9446 21.5200L214.5046 21.5200Q214.5046 20.5280 213.9846 19.9920Q213.4646 19.4560 212.5206 19.4560Q211.5766 19.4560 211.0406 19.9840Q210.5046 20.5120 210.5046 21.5040L210.5046 26.8000Q210.5046 27.7920 211.0406 28.3360Q211.5766 28.8800 212.5206 28.8800Q213.4646 28.8800 213.9846 28.3360Q214.5046 27.7920 214.5046 26.8000L214.5046 25.3600L212.1366 25.3600L212.1366 24.0480L215.9446 24.0480L215.9446 26.8000Q215.9446 27.8240 215.5286 28.5840Q215.1126 29.3440 214.3446 29.7520Q213.5766 30.1600 212.5206 30.1600 M224.1686 30L222.7286 30L222.7286 18.3200L226.3446 18.3200Q227.3846 18.3200 228.1686 18.7440Q228.9526 19.1680 229.3846 19.9200Q229.8166 20.6720 229.8166 21.6800Q229.8166 22.8640 229.2006 23.7120Q228.5846 24.5600 227.5286 24.8800L229.9766 30L228.2806 30L226.0406 25.0400L224.1686 25.0400L224.1686 30M224.1686 19.6160L224.1686 23.7440L226.3446 23.7440Q227.2406 23.7440 227.7846 23.1760Q228.3286 22.6080 228.3286 21.6800Q228.3286 20.7360 227.7846 20.1760Q227.2406 19.6160 226.3446 19.6160 M237.1286 30L235.6566 30L238.6966 18.3200L240.6326 18.3200L243.6566 30L242.2006 30L241.4326 26.8960L237.8966 26.8960L237.1286 30M239.0806 22.0640L238.1846 25.6800L241.1286 25.6800L240.2326 22.0800Q239.9766 21.0560 239.8326 20.3680Q239.6886 19.6800 239.6566 19.4720Q239.6246 19.6800 239.4806 20.3680Q239.3366 21.0560 239.0806 22.0640 M251.4166 30L249.9766 30L249.9766 18.3040L256.8566 18.3040L256.8566 19.6160L251.3846 19.6160L251.3846 23.5040L256.4406 23.5040L256.4406 24.8160L251.4166 24.8160 M269.9766 30L263.7366 30L263.7366 28.6880L266.1206 28.6880L266.1206 19.6320L263.7366 19.6320L263.7366 18.3200L269.9766 18.3200L269.9766 19.6320L267.5926 19.6320L267.5926 28.6880L269.9766 28.6880 M277.9286 30L276.4566 30L279.4966 18.3200L281.4326 18.3200L284.4566 30L283.0006 30L282.2326 26.8960L278.6966 26.8960L277.9286 30M279.8806 22.0640L278.9846 25.6800L281.9286 25.6800L281.0326 22.0800Q280.7766 21.0560 280.6326 20.3680Q280.4886 19.6800 280.4566 19.4720Q280.4246 19.6800 280.2806 20.3680Q280.1366 21.0560 279.8806 22.0640" fill="#f43f5e" />
  </g>
</svg>